<svg width="597" height="223" viewBox="0 0 597 223" fill="none" xmlns="http://www.w3.org/2000/svg">
<rect x="103.218" y="105.825" width="32.4315" height="91.3132" fill="#22749A"/>
<rect x="148.675" y="85.4889" width="32.4315" height="111.649" fill="#22749A"/>
<rect x="239.589" y="64.2223" width="32.4315" height="132.916" fill="#22749A"/>
<rect x="233.475" y="71.6656" width="32.4315" height="132.916" fill="#66A9D0"/>
<rect x="97.1035" y="113.268" width="32.4315" height="91.3132" fill="#66A9D0"/>
<rect x="142.561" y="92.9321" width="32.4315" height="111.649" fill="#66A9D0"/>
<rect x="194.132" y="105.825" width="32.4315" height="91.3132" fill="#22749A"/>
<rect x="188.018" y="113.268" width="32.4315" height="91.3132" fill="#66A9D0"/>
<circle cx="249.757" cy="149.621" r="8.24078" fill="#E5E5E5" stroke="white" stroke-width="0.132916"/>
<circle cx="204.3" cy="133.006" r="8.24078" fill="#E5E5E5" stroke="white" stroke-width="0.132916"/>
<circle cx="158.843" cy="172.349" r="8.24078" fill="#E5E5E5" stroke="white" stroke-width="0.132916"/>
<circle cx="113.386" cy="143.241" r="8.24078" fill="#E5E5E5" stroke="white" stroke-width="0.132916"/>
<path d="M113.452 143.307L158.909 172.416L204.367 133.073L249.824 149.687" stroke="white" stroke-width="1.99374"/>
<path fill-rule="evenodd" clip-rule="evenodd" d="M307.479 97.7077C307.207 97.1028 306.931 96.4988 306.65 95.8959C274.742 27.4701 193.163 -2.02071 124.438 30.0264C55.7129 62.0734 25.8662 143.523 57.7737 211.949C58.0539 212.55 58.338 213.147 58.6258 213.742C28.9804 147.636 59.6325 68.8984 127.752 37.1337C195.874 5.36798 275.896 32.501 307.479 97.7077Z" fill="#66A9D0"/>
<path d="M295.996 135.232C297.359 136.011 299.252 136.736 301.675 137.406C304.12 138.055 306.532 138.38 308.911 138.38C311.291 138.38 313.022 138.055 314.103 137.406C315.185 136.736 315.726 135.665 315.726 134.194C315.726 133.177 315.412 132.301 314.785 131.565C314.158 130.83 313.227 130.127 311.994 129.456C310.761 128.764 308.663 127.714 305.699 126.308C302.129 124.621 299.306 122.566 297.229 120.143C295.153 117.72 294.114 114.67 294.114 110.992C294.114 108.071 294.839 105.594 296.288 103.561C297.759 101.527 299.815 100.002 302.454 98.9853C305.115 97.9685 308.208 97.4601 311.735 97.4601C315.023 97.4601 317.868 97.763 320.269 98.3687C322.67 98.9528 324.466 99.591 325.656 100.283L323.741 109.564C322.681 108.742 321.102 108.017 319.003 107.39C316.927 106.741 314.861 106.416 312.805 106.416C310.534 106.416 308.825 106.784 307.678 107.52C306.553 108.255 305.991 109.272 305.991 110.57C305.991 111.543 306.272 112.409 306.835 113.166C307.419 113.923 308.306 114.659 309.495 115.373C310.685 116.065 312.362 116.909 314.525 117.904C317.619 119.288 320.128 120.662 322.054 122.025C324.001 123.388 325.493 124.978 326.532 126.795C327.57 128.591 328.089 130.743 328.089 133.253C328.089 136.216 327.386 138.802 325.98 141.008C324.596 143.193 322.551 144.891 319.847 146.103C317.143 147.293 313.887 147.888 310.08 147.888C307.873 147.888 305.688 147.725 303.525 147.401C301.383 147.076 299.512 146.676 297.911 146.2C296.31 145.724 295.163 145.27 294.471 144.837L295.996 135.232ZM354.601 97.9793L360.605 123.323L362.844 134.843L364.628 123.323L369.95 97.9793H386.143L392.438 147.368H380.561L378.29 121.116L377.543 106.903L374.461 121.506L367.841 147.661H356.905L349.701 121.506L346.456 106.903L345.613 121.116L343.666 147.368L332.243 147.401L337.954 97.9793H354.601ZM426.641 138.153H409.41L406.814 147.368H393.866L411.064 97.6548H425.148L442.476 147.368H429.366L426.641 138.153ZM424.077 129.521L419.502 114.042L417.879 107.649L416.224 114.042L411.843 129.521H424.077ZM488.328 147.368H474.699C474.44 147.044 474.202 146.687 473.985 146.298C473.791 145.887 473.434 145.075 472.915 143.864C472.309 142.479 471.649 140.705 470.935 138.542C470.264 136.573 469.691 135.027 469.215 133.902C468.739 132.777 468.166 131.825 467.495 131.046C466.825 130.267 466.046 129.845 465.159 129.78C463.926 129.867 462.141 129.91 459.805 129.91V147.368H447.474V97.9793H451.725C452.503 97.9793 454.126 97.9144 456.592 97.7846C456.938 97.763 458.085 97.7089 460.032 97.6224C461.979 97.5142 464.164 97.4601 466.587 97.4601C469.832 97.4601 472.828 97.9361 475.575 98.8879C478.323 99.8398 480.573 101.484 482.325 103.82C484.099 106.135 484.986 109.24 484.986 113.134C484.986 120.164 482.379 124.902 477.165 127.347C478.29 128.234 479.264 129.424 480.086 130.916C480.93 132.409 481.936 134.486 483.104 137.147C483.774 138.704 484.337 139.981 484.791 140.976C485.267 141.949 485.765 142.89 486.284 143.799L488.328 147.368ZM459.805 121.343C460.432 121.43 461.384 121.495 462.66 121.538C463.958 121.581 465.029 121.592 465.873 121.571C468.274 121.571 470.081 120.813 471.292 119.299C472.503 117.763 473.109 115.784 473.109 113.361C473.109 108.58 470.427 106.189 465.062 106.189C462.963 106.189 461.211 106.384 459.805 106.773V121.343ZM490.47 107.52V97.9793H529.313V107.52H516.138V147.368H503.677V107.52H490.47Z" fill="#66A9D0"/>
<path d="M329.261 193.183C330.624 193.962 332.517 194.687 334.94 195.358C337.384 196.007 339.796 196.331 342.176 196.331C344.556 196.331 346.286 196.007 347.368 195.358C348.45 194.687 348.99 193.616 348.99 192.145C348.99 191.128 348.677 190.252 348.049 189.517C347.422 188.781 346.492 188.078 345.259 187.407C344.026 186.715 341.927 185.666 338.963 184.26C335.394 182.572 332.571 180.517 330.494 178.094C328.417 175.671 327.379 172.621 327.379 168.943C327.379 166.023 328.103 163.546 329.553 161.512C331.024 159.479 333.079 157.953 335.718 156.937C338.379 155.92 341.473 155.411 344.999 155.411C348.287 155.411 351.132 155.714 353.534 156.32C355.935 156.904 357.73 157.542 358.92 158.235L357.006 167.515C355.946 166.693 354.366 165.969 352.268 165.341C350.191 164.692 348.125 164.368 346.07 164.368C343.798 164.368 342.089 164.735 340.943 165.471C339.818 166.207 339.255 167.223 339.255 168.521C339.255 169.495 339.537 170.36 340.099 171.117C340.683 171.874 341.57 172.61 342.76 173.324C343.95 174.016 345.626 174.86 347.79 175.855C350.883 177.24 353.393 178.613 355.318 179.976C357.265 181.339 358.758 182.929 359.796 184.746C360.835 186.542 361.354 188.694 361.354 191.204C361.354 194.168 360.651 196.753 359.245 198.96C357.86 201.145 355.816 202.843 353.112 204.054C350.407 205.244 347.152 205.839 343.344 205.839C341.138 205.839 338.953 205.677 336.789 205.352C334.648 205.028 332.776 204.627 331.175 204.152C329.574 203.676 328.428 203.221 327.736 202.789L329.261 193.183ZM400.262 155.931V165.146H381.278V175.595H395.913V184.584H381.278V195.877H402.209V205.32H369.045V155.931H400.262ZM436.801 196.104H419.57L416.974 205.32H404.026L421.225 155.606H435.308L452.636 205.32H439.526L436.801 196.104ZM434.237 187.472L429.662 171.993L428.039 165.601L426.384 171.993L422.003 187.472H434.237ZM457.763 193.183C459.126 193.962 461.019 194.687 463.442 195.358C465.887 196.007 468.299 196.331 470.679 196.331C473.058 196.331 474.789 196.007 475.871 195.358C476.952 194.687 477.493 193.616 477.493 192.145C477.493 191.128 477.179 190.252 476.552 189.517C475.925 188.781 474.994 188.078 473.761 187.407C472.528 186.715 470.43 185.666 467.466 184.26C463.897 182.572 461.073 180.517 458.997 178.094C456.92 175.671 455.881 172.621 455.881 168.943C455.881 166.023 456.606 163.546 458.055 161.512C459.527 159.479 461.582 157.953 464.221 156.937C466.882 155.92 469.975 155.411 473.502 155.411C476.79 155.411 479.635 155.714 482.036 156.32C484.437 156.904 486.233 157.542 487.423 158.235L485.508 167.515C484.448 166.693 482.869 165.969 480.771 165.341C478.694 164.692 476.628 164.368 474.573 164.368C472.301 164.368 470.592 164.735 469.445 165.471C468.321 166.207 467.758 167.223 467.758 168.521C467.758 169.495 468.039 170.36 468.602 171.117C469.186 171.874 470.073 172.61 471.263 173.324C472.453 174.016 474.129 174.86 476.292 175.855C479.386 177.24 481.896 178.613 483.821 179.976C485.768 181.339 487.261 182.929 488.299 184.746C489.337 186.542 489.857 188.694 489.857 191.204C489.857 194.168 489.154 196.753 487.747 198.96C486.363 201.145 484.318 202.843 481.614 204.054C478.91 205.244 475.654 205.839 471.847 205.839C469.64 205.839 467.455 205.677 465.292 205.352C463.15 205.028 461.279 204.627 459.678 204.152C458.077 203.676 456.931 203.221 456.238 202.789L457.763 193.183ZM494.951 180.366C495.103 171.993 497.288 165.795 501.506 161.772C505.725 157.748 511.468 155.628 518.737 155.411C523.367 155.282 527.358 156.233 530.711 158.267C534.086 160.279 536.65 163.199 538.402 167.029C540.154 170.858 540.987 175.368 540.901 180.56C540.793 186.336 539.743 191.107 537.753 194.871C535.763 198.635 533.015 201.404 529.511 203.178C526.006 204.952 521.885 205.839 517.147 205.839C512.474 205.839 508.451 204.801 505.076 202.724C501.701 200.625 499.148 197.662 497.418 193.832C495.687 190.003 494.865 185.514 494.951 180.366ZM528.18 180.203C528.18 175.422 527.369 171.647 525.747 168.878C524.124 166.088 521.712 164.692 518.51 164.692C515.222 164.692 512.593 165.947 510.625 168.456C508.656 170.966 507.672 175.055 507.672 180.723C507.672 183.903 508.05 186.704 508.808 189.127C509.586 191.528 510.744 193.411 512.28 194.773C513.837 196.115 515.741 196.785 517.991 196.785C521.279 196.785 523.799 195.466 525.552 192.826C527.304 190.166 528.18 185.958 528.18 180.203ZM591.296 155.931V205.32H578.867L562.869 178.873L559.268 171.377L560.793 183.968V205.32H549.597V155.931H561.15L577.991 183.027L581.431 190.23L580.101 177.672V155.931H591.296Z" fill="white"/>
<path d="M329.261 193.183L330.253 191.447L327.74 190.011L327.286 192.87L329.261 193.183ZM334.94 195.358L334.406 197.285L334.416 197.288L334.426 197.291L334.94 195.358ZM347.368 195.358L348.397 197.073L348.409 197.065L348.422 197.057L347.368 195.358ZM345.259 187.407L344.28 189.151L344.291 189.158L344.303 189.164L345.259 187.407ZM338.963 184.26L339.821 182.453L339.818 182.451L338.963 184.26ZM329.553 161.512L327.932 160.34L327.924 160.351L329.553 161.512ZM335.718 156.937L335.004 155.068L334.999 155.07L335.718 156.937ZM353.534 156.32L353.044 158.259L353.053 158.261L353.061 158.263L353.534 156.32ZM358.92 158.235L360.879 158.639L361.17 157.229L359.926 156.506L358.92 158.235ZM357.006 167.515L355.78 169.096L358.316 171.062L358.964 167.919L357.006 167.515ZM352.268 165.341L351.671 167.25L351.683 167.254L351.695 167.257L352.268 165.341ZM340.943 165.471L339.863 163.788L339.856 163.792L339.848 163.797L340.943 165.471ZM340.099 171.117L338.494 172.31L338.504 172.325L338.516 172.339L340.099 171.117ZM342.76 173.324L341.731 175.039L341.743 175.046L341.754 175.053L342.76 173.324ZM347.79 175.855L346.954 177.672L346.963 177.676L346.973 177.681L347.79 175.855ZM355.318 179.976L354.163 181.609L354.171 181.615L355.318 179.976ZM359.796 184.746L358.06 185.739L358.065 185.748L359.796 184.746ZM359.245 198.96L357.558 197.885L357.555 197.889L359.245 198.96ZM353.112 204.054L353.917 205.885L353.929 205.879L353.112 204.054ZM336.789 205.352L336.49 207.33L336.493 207.33L336.789 205.352ZM327.736 202.789L325.76 202.475L325.553 203.783L326.676 204.485L327.736 202.789ZM328.269 194.92C329.836 195.815 331.906 196.593 334.406 197.285L335.473 193.43C333.127 192.781 331.412 192.109 330.253 191.447L328.269 194.92ZM334.426 197.291C337.028 197.981 339.613 198.331 342.176 198.331V194.331C339.98 194.331 337.74 194.032 335.453 193.425L334.426 197.291ZM342.176 198.331C344.648 198.331 346.834 198.01 348.397 197.073L346.339 193.643C345.738 194.003 344.464 194.331 342.176 194.331V198.331ZM348.422 197.057C350.192 195.96 350.99 194.181 350.99 192.145H346.99C346.99 193.051 346.707 193.414 346.314 193.658L348.422 197.057ZM350.99 192.145C350.99 190.679 350.524 189.336 349.571 188.219L346.528 190.814C346.829 191.168 346.99 191.577 346.99 192.145H350.99ZM349.571 188.219C348.73 187.233 347.574 186.39 346.214 185.65L344.303 189.164C345.41 189.766 346.114 190.329 346.528 190.814L349.571 188.219ZM346.238 185.663C344.939 184.934 342.786 183.86 339.821 182.453L338.106 186.067C341.068 187.472 343.112 188.496 344.28 189.151L346.238 185.663ZM339.818 182.451C336.444 180.857 333.868 178.957 332.012 176.792L328.975 179.396C331.273 182.077 334.343 184.288 338.109 186.068L339.818 182.451ZM332.012 176.792C330.293 174.787 329.379 172.221 329.379 168.943H325.379C325.379 173.021 326.541 176.556 328.975 179.396L332.012 176.792ZM329.379 168.943C329.379 166.366 330.013 164.313 331.181 162.673L327.924 160.351C326.194 162.778 325.379 165.679 325.379 168.943H329.379ZM331.173 162.684C332.389 161.003 334.112 159.699 336.437 158.803L334.999 155.07C332.046 156.208 329.658 157.954 327.932 160.34L331.173 162.684ZM336.432 158.805C338.818 157.893 341.661 157.411 344.999 157.411V153.411C341.285 153.411 337.94 153.946 335.004 155.068L336.432 158.805ZM344.999 157.411C348.173 157.411 350.845 157.705 353.044 158.259L354.023 154.381C351.419 153.724 348.402 153.411 344.999 153.411V157.411ZM353.061 158.263C355.398 158.832 356.974 159.416 357.914 159.963L359.926 156.506C358.487 155.669 356.471 154.976 354.006 154.377L353.061 158.263ZM356.961 157.831L355.047 167.111L358.964 167.919L360.879 158.639L356.961 157.831ZM358.231 165.935C356.892 164.896 355.045 164.084 352.841 163.425L351.695 167.257C353.688 167.853 355 168.49 355.78 169.096L358.231 165.935ZM352.865 163.432C350.606 162.726 348.339 162.368 346.07 162.368V166.368C347.911 166.368 349.776 166.658 351.671 167.25L352.865 163.432ZM346.07 162.368C343.644 162.368 341.482 162.749 339.863 163.788L342.023 167.154C342.697 166.722 343.953 166.368 346.07 166.368V162.368ZM339.848 163.797C338.183 164.886 337.255 166.52 337.255 168.521H341.255C341.255 167.927 341.453 167.527 342.037 167.145L339.848 163.797ZM337.255 168.521C337.255 169.91 337.666 171.196 338.494 172.31L341.705 169.925C341.407 169.524 341.255 169.08 341.255 168.521H337.255ZM338.516 172.339C339.304 173.361 340.415 174.25 341.731 175.039L343.789 171.609C342.725 170.97 342.062 170.387 341.683 169.896L338.516 172.339ZM341.754 175.053C343.025 175.792 344.768 176.666 346.954 177.672L348.626 174.038C346.485 173.053 344.875 172.24 343.766 171.595L341.754 175.053ZM346.973 177.681C349.994 179.033 352.379 180.346 354.163 181.609L356.474 178.344C354.407 176.881 351.773 175.446 348.607 174.03L346.973 177.681ZM354.171 181.615C355.909 182.831 357.187 184.21 358.06 185.739L361.533 183.754C360.329 181.648 358.621 179.847 356.465 178.338L354.171 181.615ZM358.065 185.748C358.894 187.181 359.354 188.972 359.354 191.204H363.354C363.354 188.417 362.776 185.903 361.528 183.745L358.065 185.748ZM359.354 191.204C359.354 193.839 358.733 196.04 357.558 197.885L360.931 200.034C362.568 197.465 363.354 194.497 363.354 191.204H359.354ZM357.555 197.889C356.41 199.696 354.693 201.154 352.294 202.229L353.929 205.879C356.938 204.531 359.31 202.593 360.934 200.03L357.555 197.889ZM352.306 202.224C349.918 203.274 346.951 203.839 343.344 203.839V207.839C347.352 207.839 350.897 207.214 353.917 205.885L352.306 202.224ZM343.344 203.839C341.236 203.839 339.15 203.684 337.086 203.374L336.493 207.33C338.755 207.669 341.039 207.839 343.344 207.839V203.839ZM337.089 203.375C335.013 203.06 333.236 202.678 331.745 202.234L330.605 206.069C332.316 206.577 334.282 206.995 336.49 207.33L337.089 203.375ZM331.745 202.234C330.176 201.768 329.247 201.375 328.796 201.093L326.676 204.485C327.609 205.068 328.973 205.583 330.605 206.069L331.745 202.234ZM329.711 203.102L331.236 193.497L327.286 192.87L325.76 202.475L329.711 203.102ZM400.262 155.931H402.262V153.931H400.262V155.931ZM400.262 165.146V167.146H402.262V165.146H400.262ZM381.278 165.146V163.146H379.278V165.146H381.278ZM381.278 175.595H379.278V177.595H381.278V175.595ZM395.913 175.595H397.913V173.595H395.913V175.595ZM395.913 184.584V186.584H397.913V184.584H395.913ZM381.278 184.584V182.584H379.278V184.584H381.278ZM381.278 195.877H379.278V197.877H381.278V195.877ZM402.209 195.877H404.209V193.877H402.209V195.877ZM402.209 205.32V207.32H404.209V205.32H402.209ZM369.045 205.32H367.045V207.32H369.045V205.32ZM369.045 155.931V153.931H367.045V155.931H369.045ZM398.262 155.931V165.146H402.262V155.931H398.262ZM400.262 163.146H381.278V167.146H400.262V163.146ZM379.278 165.146V175.595H383.278V165.146H379.278ZM381.278 177.595H395.913V173.595H381.278V177.595ZM393.913 175.595V184.584H397.913V175.595H393.913ZM395.913 182.584H381.278V186.584H395.913V182.584ZM379.278 184.584V195.877H383.278V184.584H379.278ZM381.278 197.877H402.209V193.877H381.278V197.877ZM400.209 195.877V205.32H404.209V195.877H400.209ZM402.209 203.32H369.045V207.32H402.209V203.32ZM371.045 205.32V155.931H367.045V205.32H371.045ZM369.045 157.931H400.262V153.931H369.045V157.931ZM436.801 196.104L438.718 195.537L438.295 194.104H436.801V196.104ZM419.57 196.104V194.104H418.055L417.645 195.562L419.57 196.104ZM416.974 205.32V207.32H418.488L418.899 205.862L416.974 205.32ZM404.026 205.32L402.136 204.666L401.218 207.32H404.026V205.32ZM421.225 155.606V153.606H419.8L419.334 154.952L421.225 155.606ZM435.308 155.606L437.196 154.948L436.729 153.606H435.308V155.606ZM452.636 205.32V207.32H455.451L454.525 204.661L452.636 205.32ZM439.526 205.32L437.609 205.887L438.032 207.32H439.526V205.32ZM434.237 187.472V189.472H436.914L436.155 186.905L434.237 187.472ZM429.662 171.993L427.723 172.485L427.733 172.523L427.744 172.56L429.662 171.993ZM428.039 165.601L429.978 165.109L426.103 165.1L428.039 165.601ZM426.384 171.993L428.309 172.538L428.315 172.516L428.32 172.495L426.384 171.993ZM422.003 187.472L420.079 186.928L419.359 189.472H422.003V187.472ZM436.801 194.104H419.57V198.104H436.801V194.104ZM417.645 195.562L415.049 204.777L418.899 205.862L421.495 196.646L417.645 195.562ZM416.974 203.32H404.026V207.32H416.974V203.32ZM405.916 205.974L423.115 156.26L419.334 154.952L402.136 204.666L405.916 205.974ZM421.225 157.606H435.308V153.606H421.225V157.606ZM433.419 156.264L450.748 205.978L454.525 204.661L437.196 154.948L433.419 156.264ZM452.636 203.32H439.526V207.32H452.636V203.32ZM441.444 204.753L438.718 195.537L434.883 196.671L437.609 205.887L441.444 204.753ZM436.155 186.905L431.58 171.427L427.744 172.56L432.319 188.039L436.155 186.905ZM431.6 171.501L429.978 165.109L426.101 166.093L427.723 172.485L431.6 171.501ZM426.103 165.1L424.448 171.492L428.32 172.495L429.975 166.102L426.103 165.1ZM424.46 171.449L420.079 186.928L423.928 188.017L428.309 172.538L424.46 171.449ZM422.003 189.472H434.237V185.472H422.003V189.472ZM457.763 193.183L458.756 191.447L456.242 190.011L455.788 192.87L457.763 193.183ZM463.442 195.358L462.909 197.285L462.919 197.288L462.929 197.291L463.442 195.358ZM475.871 195.358L476.9 197.073L476.912 197.065L476.924 197.057L475.871 195.358ZM473.761 187.407L472.782 189.151L472.794 189.158L472.806 189.164L473.761 187.407ZM467.466 184.26L468.323 182.453L468.321 182.451L467.466 184.26ZM458.055 161.512L456.435 160.34L456.427 160.351L458.055 161.512ZM464.221 156.937L463.507 155.068L463.502 155.07L464.221 156.937ZM482.036 156.32L481.547 158.259L481.555 158.261L481.563 158.263L482.036 156.32ZM487.423 158.235L489.382 158.639L489.672 157.229L488.429 156.506L487.423 158.235ZM485.508 167.515L484.283 169.096L486.819 171.062L487.467 167.919L485.508 167.515ZM480.771 165.341L480.174 167.25L480.186 167.254L480.198 167.257L480.771 165.341ZM469.445 165.471L468.366 163.788L468.358 163.792L468.351 163.797L469.445 165.471ZM468.602 171.117L466.996 172.31L467.007 172.325L467.018 172.339L468.602 171.117ZM471.263 173.324L470.234 175.039L470.245 175.046L470.257 175.053L471.263 173.324ZM476.292 175.855L475.457 177.672L475.466 177.676L475.475 177.681L476.292 175.855ZM483.821 179.976L482.665 181.609L482.674 181.615L483.821 179.976ZM488.299 184.746L486.563 185.739L486.568 185.748L488.299 184.746ZM487.747 198.96L486.061 197.885L486.058 197.889L487.747 198.96ZM481.614 204.054L482.42 205.885L482.432 205.879L481.614 204.054ZM465.292 205.352L464.992 207.33L464.995 207.33L465.292 205.352ZM456.238 202.789L454.263 202.475L454.055 203.783L455.178 204.485L456.238 202.789ZM456.771 194.92C458.338 195.815 460.409 196.593 462.909 197.285L463.976 193.43C461.629 192.781 459.915 192.109 458.756 191.447L456.771 194.92ZM462.929 197.291C465.531 197.981 468.115 198.331 470.679 198.331V194.331C468.483 194.331 466.243 194.032 463.955 193.425L462.929 197.291ZM470.679 198.331C473.15 198.331 475.337 198.01 476.9 197.073L474.842 193.643C474.241 194.003 472.966 194.331 470.679 194.331V198.331ZM476.924 197.057C478.695 195.96 479.493 194.181 479.493 192.145H475.493C475.493 193.051 475.21 193.414 474.817 193.658L476.924 197.057ZM479.493 192.145C479.493 190.679 479.027 189.336 478.074 188.219L475.03 190.814C475.332 191.168 475.493 191.577 475.493 192.145H479.493ZM478.074 188.219C477.233 187.233 476.076 186.39 474.717 185.65L472.806 189.164C473.913 189.766 474.617 190.329 475.03 190.814L478.074 188.219ZM474.74 185.663C473.442 184.934 471.289 183.86 468.323 182.453L466.609 186.067C469.571 187.472 471.614 188.496 472.782 189.151L474.74 185.663ZM468.321 182.451C464.947 180.857 462.371 178.957 460.515 176.792L457.478 179.396C459.776 182.077 462.846 184.288 466.611 186.068L468.321 182.451ZM460.515 176.792C458.796 174.787 457.881 172.221 457.881 168.943H453.881C453.881 173.021 455.044 176.556 457.478 179.396L460.515 176.792ZM457.881 168.943C457.881 166.366 458.515 164.313 459.684 162.673L456.427 160.351C454.697 162.778 453.881 165.679 453.881 168.943H457.881ZM459.676 162.684C460.892 161.003 462.615 159.699 464.94 158.803L463.502 155.07C460.549 156.208 458.161 157.954 456.435 160.34L459.676 162.684ZM464.935 158.805C467.321 157.893 470.163 157.411 473.502 157.411V153.411C469.788 153.411 466.443 153.946 463.507 155.068L464.935 158.805ZM473.502 157.411C476.675 157.411 479.348 157.705 481.547 158.259L482.525 154.381C479.922 153.724 476.905 153.411 473.502 153.411V157.411ZM481.563 158.263C483.901 158.832 485.476 159.416 486.417 159.963L488.429 156.506C486.99 155.669 484.974 154.976 482.509 154.377L481.563 158.263ZM485.464 157.831L483.55 167.111L487.467 167.919L489.382 158.639L485.464 157.831ZM486.734 165.935C485.394 164.896 483.548 164.084 481.343 163.425L480.198 167.257C482.19 167.853 483.502 168.49 484.283 169.096L486.734 165.935ZM481.367 163.432C479.109 162.726 476.842 162.368 474.573 162.368V166.368C476.414 166.368 478.279 166.658 480.174 167.25L481.367 163.432ZM474.573 162.368C472.147 162.368 469.984 162.749 468.366 163.788L470.525 167.154C471.2 166.722 472.455 166.368 474.573 166.368V162.368ZM468.351 163.797C466.685 164.886 465.758 166.52 465.758 168.521H469.758C469.758 167.927 469.956 167.527 470.54 167.145L468.351 163.797ZM465.758 168.521C465.758 169.91 466.169 171.196 466.996 172.31L470.207 169.925C469.91 169.524 469.758 169.08 469.758 168.521H465.758ZM467.018 172.339C467.807 173.361 468.918 174.25 470.234 175.039L472.292 171.609C471.228 170.97 470.565 170.387 470.185 169.896L467.018 172.339ZM470.257 175.053C471.528 175.792 473.271 176.666 475.457 177.672L477.128 174.038C474.988 173.053 473.377 172.24 472.268 171.595L470.257 175.053ZM475.475 177.681C478.497 179.033 480.881 180.346 482.665 181.609L484.976 178.344C482.91 176.881 480.275 175.446 477.109 174.03L475.475 177.681ZM482.674 181.615C484.412 182.831 485.689 184.21 486.563 185.739L490.036 183.754C488.832 181.648 487.124 179.847 484.968 178.338L482.674 181.615ZM486.568 185.748C487.397 187.181 487.857 188.972 487.857 191.204H491.857C491.857 188.417 491.278 185.903 490.03 183.745L486.568 185.748ZM487.857 191.204C487.857 193.839 487.236 196.04 486.061 197.885L489.434 200.034C491.071 197.465 491.857 194.497 491.857 191.204H487.857ZM486.058 197.889C484.913 199.696 483.196 201.154 480.797 202.229L482.432 205.879C485.441 204.531 487.813 202.593 489.437 200.03L486.058 197.889ZM480.809 202.224C478.42 203.274 475.454 203.839 471.847 203.839V207.839C475.855 207.839 479.4 207.214 482.42 205.885L480.809 202.224ZM471.847 203.839C469.739 203.839 467.653 203.684 465.589 203.374L464.995 207.33C467.258 207.669 469.542 207.839 471.847 207.839V203.839ZM465.591 203.375C463.516 203.06 461.739 202.678 460.248 202.234L459.108 206.069C460.819 206.577 462.784 206.995 464.992 207.33L465.591 203.375ZM460.248 202.234C458.679 201.768 457.75 201.375 457.298 201.093L455.178 204.485C456.111 205.068 457.475 205.583 459.108 206.069L460.248 202.234ZM458.214 203.102L459.739 193.497L455.788 192.87L454.263 202.475L458.214 203.102ZM494.951 180.366L492.952 180.329L492.952 180.332L494.951 180.366ZM518.737 155.411L518.681 153.412L518.678 153.412L518.737 155.411ZM530.711 158.267L529.674 159.977L529.681 159.981L529.687 159.985L530.711 158.267ZM540.901 180.56L542.9 180.598L542.9 180.594L540.901 180.56ZM529.511 203.178L528.607 201.394L529.511 203.178ZM505.076 202.724L504.02 204.422L504.028 204.427L505.076 202.724ZM525.747 168.878L524.017 169.883L524.021 169.889L525.747 168.878ZM508.808 189.127L506.899 189.724L506.902 189.734L506.905 189.744L508.808 189.127ZM512.28 194.773L510.952 196.269L510.963 196.279L510.975 196.289L512.28 194.773ZM525.552 192.826L527.218 193.933L527.222 193.926L525.552 192.826ZM496.951 180.402C497.097 172.329 499.197 166.739 502.887 163.219L500.126 160.324C495.379 164.852 493.108 171.658 492.952 180.329L496.951 180.402ZM502.887 163.219C506.666 159.614 511.894 157.616 518.797 157.411L518.678 153.412C511.043 153.64 504.784 155.881 500.126 160.324L502.887 163.219ZM518.793 157.411C523.109 157.29 526.706 158.177 529.674 159.977L531.748 156.557C528.011 154.29 523.625 153.274 518.681 153.412L518.793 157.411ZM529.687 159.985C532.688 161.774 534.987 164.373 536.583 167.861L540.221 166.196C538.312 162.026 535.484 158.784 531.736 156.549L529.687 159.985ZM536.583 167.861C538.186 171.363 538.984 175.565 538.901 180.527L542.9 180.594C542.991 175.171 542.123 170.353 540.221 166.196L536.583 167.861ZM538.901 180.523C538.797 186.092 537.786 190.529 535.985 193.936L539.521 195.806C541.7 191.684 542.788 186.581 542.9 180.598L538.901 180.523ZM535.985 193.936C534.171 197.367 531.712 199.822 528.607 201.394L530.414 204.962C534.319 202.986 537.355 199.903 539.521 195.806L535.985 193.936ZM528.607 201.394C525.435 203 521.635 203.839 517.147 203.839V207.839C522.135 207.839 526.577 206.904 530.414 204.962L528.607 201.394ZM517.147 203.839C512.777 203.839 509.131 202.871 506.124 201.02L504.028 204.427C507.77 206.73 512.171 207.839 517.147 207.839V203.839ZM506.132 201.025C503.113 199.148 500.817 196.499 499.24 193.009L495.595 194.656C497.479 198.824 500.289 202.102 504.02 204.422L506.132 201.025ZM499.24 193.009C497.655 189.502 496.868 185.318 496.951 180.399L492.952 180.332C492.861 185.711 493.718 190.504 495.595 194.656L499.24 193.009ZM530.18 180.203C530.18 175.229 529.341 171.057 527.472 167.867L524.021 169.889C525.397 172.237 526.18 175.616 526.18 180.203H530.18ZM527.476 167.873C525.499 164.473 522.431 162.692 518.51 162.692V166.692C520.992 166.692 522.749 167.702 524.017 169.883L527.476 167.873ZM518.51 162.692C514.63 162.692 511.412 164.212 509.051 167.222L512.198 169.691C513.774 167.682 515.814 166.692 518.51 166.692V162.692ZM509.051 167.222C506.662 170.267 505.672 174.916 505.672 180.723H509.672C509.672 175.193 510.65 171.664 512.198 169.691L509.051 167.222ZM505.672 180.723C505.672 184.056 506.068 187.066 506.899 189.724L510.716 188.531C510.033 186.342 509.672 183.749 509.672 180.723H505.672ZM506.905 189.744C507.769 192.407 509.095 194.621 510.952 196.269L513.607 193.277C512.393 192.2 511.404 190.65 510.71 188.51L506.905 189.744ZM510.975 196.289C512.931 197.973 515.311 198.785 517.991 198.785V194.785C516.171 194.785 514.744 194.256 513.585 193.258L510.975 196.289ZM517.991 198.785C521.919 198.785 525.079 197.155 527.218 193.933L523.886 191.72C522.52 193.776 520.64 194.785 517.991 194.785V198.785ZM527.222 193.926C529.302 190.768 530.18 186.076 530.18 180.203H526.18C526.18 185.84 525.306 189.563 523.881 191.726L527.222 193.926ZM591.296 155.931H593.296V153.931H591.296V155.931ZM591.296 205.32V207.32H593.296V205.32H591.296ZM578.867 205.32L577.156 206.355L577.74 207.32H578.867V205.32ZM562.869 178.873L561.067 179.739L561.108 179.826L561.158 179.908L562.869 178.873ZM559.268 171.377L561.07 170.511L557.282 171.617L559.268 171.377ZM560.793 183.968H562.793V183.847L562.778 183.727L560.793 183.968ZM560.793 205.32V207.32H562.793V205.32H560.793ZM549.597 205.32H547.597V207.32H549.597V205.32ZM549.597 155.931V153.931H547.597V155.931H549.597ZM561.15 155.931L562.848 154.875L562.261 153.931H561.15V155.931ZM577.991 183.027L579.796 182.165L579.748 182.065L579.69 181.971L577.991 183.027ZM581.431 190.23L579.626 191.092L583.42 190.02L581.431 190.23ZM580.101 177.672H578.101V177.778L578.112 177.883L580.101 177.672ZM580.101 155.931V153.931H578.101V155.931H580.101ZM589.296 155.931V205.32H593.296V155.931H589.296ZM591.296 203.32H578.867V207.32H591.296V203.32ZM580.579 204.285L564.581 177.838L561.158 179.908L577.156 206.355L580.579 204.285ZM564.672 178.007L561.07 170.511L557.465 172.243L561.067 179.739L564.672 178.007ZM557.282 171.617L558.807 184.208L562.778 183.727L561.253 171.136L557.282 171.617ZM558.793 183.968V205.32H562.793V183.968H558.793ZM560.793 203.32H549.597V207.32H560.793V203.32ZM551.597 205.32V155.931H547.597V205.32H551.597ZM549.597 157.931H561.15V153.931H549.597V157.931ZM559.451 156.986L576.293 184.082L579.69 181.971L562.848 154.875L559.451 156.986ZM576.186 183.888L579.626 191.092L583.236 189.369L579.796 182.165L576.186 183.888ZM583.42 190.02L582.089 177.462L578.112 177.883L579.442 190.441L583.42 190.02ZM582.101 177.672V155.931H578.101V177.672H582.101ZM580.101 157.931H591.296V153.931H580.101V157.931Z" fill="#22749A"/>
</svg>
