<svg width="544" height="280" viewBox="0 0 544 280" fill="none" xmlns="http://www.w3.org/2000/svg">
<rect x="94.0547" y="121.944" width="29.5523" height="83.2067" fill="#293241"/>
<rect x="135.476" y="103.414" width="29.5523" height="101.737" fill="#293241"/>
<rect x="218.319" y="84.0349" width="29.5523" height="121.116" fill="#293241"/>
<rect x="212.748" y="90.8176" width="29.5523" height="121.116" fill="#66A9D0"/>
<rect x="88.4824" y="128.727" width="29.5523" height="83.2067" fill="#66A9D0"/>
<rect x="129.904" y="110.196" width="29.5523" height="101.737" fill="#66A9D0"/>
<rect x="176.897" y="121.944" width="29.5523" height="83.2067" fill="#293241"/>
<rect x="171.326" y="128.727" width="29.5523" height="83.2067" fill="#66A9D0"/>
<circle cx="227.584" cy="161.852" r="7.50919" fill="#F8F7F7" stroke="#293241" stroke-width="0.121116"/>
<circle cx="186.163" cy="146.713" r="7.50919" fill="#F8F7F7" stroke="#293241" stroke-width="0.121116"/>
<circle cx="144.742" cy="182.563" r="7.50919" fill="#F8F7F7" stroke="#293241" stroke-width="0.121116"/>
<circle cx="103.32" cy="156.038" r="7.50919" fill="#F8F7F7" stroke="#293241" stroke-width="0.121116"/>
<path d="M103.38 156.099L144.802 182.624L186.223 146.773L227.645 161.913" stroke="#F8F7F7" stroke-width="1.81674"/>
<path fill-rule="evenodd" clip-rule="evenodd" d="M53.4206 220.28C53.1585 219.739 52.8997 219.194 52.6445 218.647C23.5697 156.295 50.7666 82.077 113.391 52.8749C176.015 23.6729 250.351 50.5456 279.426 112.897C279.682 113.446 279.934 113.997 280.182 114.548C251.402 55.13 178.485 30.4056 116.41 59.3512C54.3385 88.2959 26.4076 160.043 53.4206 220.28ZM219.568 278.25C219.272 278.391 218.977 278.53 218.68 278.668C218.385 278.806 218.09 278.942 217.795 279.077C218.09 278.942 218.385 278.806 218.68 278.668C218.976 278.53 219.272 278.391 219.568 278.25Z" fill="#66A9D0"/>
<path d="M269.718 147.6C270.96 148.31 272.685 148.97 274.893 149.581C277.12 150.173 279.318 150.468 281.487 150.468C283.655 150.468 285.232 150.173 286.218 149.581C287.203 148.97 287.696 147.994 287.696 146.654C287.696 145.727 287.41 144.929 286.839 144.259C286.267 143.588 285.419 142.948 284.296 142.337C283.172 141.706 281.26 140.75 278.559 139.468C275.307 137.931 272.734 136.058 270.842 133.85C268.949 131.642 268.003 128.863 268.003 125.512C268.003 122.85 268.663 120.593 269.984 118.74C271.325 116.887 273.197 115.498 275.602 114.571C278.027 113.645 280.846 113.181 284.059 113.181C287.055 113.181 289.648 113.457 291.836 114.009C294.024 114.542 295.66 115.123 296.744 115.754L295 124.211C294.034 123.462 292.595 122.801 290.683 122.23C288.79 121.638 286.908 121.342 285.035 121.342C282.965 121.342 281.408 121.678 280.363 122.348C279.338 123.018 278.825 123.945 278.825 125.127C278.825 126.014 279.082 126.803 279.594 127.493C280.126 128.183 280.935 128.853 282.019 129.504C283.103 130.134 284.631 130.903 286.602 131.81C289.421 133.072 291.708 134.323 293.462 135.565C295.236 136.807 296.596 138.256 297.543 139.912C298.489 141.548 298.962 143.51 298.962 145.796C298.962 148.497 298.321 150.853 297.04 152.863C295.778 154.854 293.916 156.402 291.451 157.506C288.987 158.59 286.021 159.132 282.551 159.132C280.54 159.132 278.549 158.984 276.578 158.689C274.626 158.393 272.921 158.028 271.463 157.594C270.004 157.161 268.959 156.747 268.328 156.353L269.718 147.6ZM323.12 113.654L328.591 136.748L330.631 147.245L332.257 136.748L337.106 113.654H351.862L357.598 158.659H346.776L344.706 134.737L344.026 121.786L341.217 135.092L335.184 158.925H325.22L318.655 135.092L315.698 121.786L314.929 134.737L313.155 158.659L302.747 158.689L307.951 113.654H323.12ZM388.764 150.261H373.063L370.697 158.659H358.899L374.571 113.359H387.404L403.194 158.659H391.248L388.764 150.261ZM386.428 142.396L382.259 128.291L380.78 122.466L379.272 128.291L375.28 142.396H386.428ZM444.975 158.659H432.556C432.32 158.363 432.103 158.038 431.906 157.683C431.728 157.309 431.403 156.569 430.93 155.465C430.378 154.204 429.777 152.587 429.126 150.616C428.515 148.822 427.993 147.413 427.559 146.388C427.125 145.363 426.603 144.495 425.992 143.786C425.381 143.076 424.671 142.692 423.863 142.632C422.739 142.711 421.113 142.751 418.984 142.751V158.659H407.748V113.654H411.621C412.331 113.654 413.809 113.595 416.057 113.477C416.372 113.457 417.417 113.408 419.191 113.329C420.965 113.231 422.956 113.181 425.164 113.181C428.121 113.181 430.851 113.615 433.355 114.482C435.858 115.35 437.908 116.848 439.505 118.977C441.121 121.086 441.93 123.915 441.93 127.463C441.93 133.87 439.554 138.187 434.804 140.415C435.829 141.223 436.716 142.307 437.465 143.667C438.234 145.027 439.15 146.92 440.215 149.345C440.826 150.764 441.338 151.927 441.752 152.834C442.186 153.721 442.639 154.578 443.113 155.406L444.975 158.659ZM418.984 134.944C419.556 135.023 420.423 135.082 421.586 135.122C422.769 135.161 423.745 135.171 424.513 135.151C426.702 135.151 428.348 134.461 429.451 133.081C430.555 131.682 431.107 129.878 431.107 127.67C431.107 123.314 428.663 121.135 423.774 121.135C421.862 121.135 420.265 121.313 418.984 121.668V134.944ZM446.927 122.348V113.654H482.321V122.348H470.316V158.659H458.962V122.348H446.927Z" fill="#66A9D0"/>
<path d="M300.03 200.407C301.272 201.116 302.996 201.777 305.204 202.388C307.432 202.979 309.63 203.275 311.798 203.275C313.967 203.275 315.544 202.979 316.529 202.388C317.515 201.777 318.008 200.801 318.008 199.46C318.008 198.534 317.722 197.736 317.15 197.065C316.579 196.395 315.731 195.754 314.607 195.143C313.484 194.512 311.572 193.556 308.871 192.275C305.618 190.737 303.046 188.865 301.153 186.657C299.261 184.449 298.315 181.67 298.315 178.318C298.315 175.657 298.975 173.4 300.296 171.547C301.636 169.694 303.509 168.304 305.914 167.378C308.339 166.451 311.158 165.988 314.371 165.988C317.367 165.988 319.959 166.264 322.148 166.816C324.336 167.348 325.972 167.93 327.056 168.56L325.311 177.017C324.346 176.268 322.906 175.608 320.994 175.036C319.102 174.445 317.219 174.149 315.347 174.149C313.277 174.149 311.719 174.484 310.675 175.154C309.65 175.825 309.137 176.751 309.137 177.934C309.137 178.821 309.393 179.61 309.906 180.3C310.438 180.989 311.246 181.66 312.331 182.31C313.415 182.941 314.942 183.71 316.914 184.617C319.733 185.878 322.019 187.13 323.774 188.372C325.548 189.614 326.908 191.063 327.854 192.719C328.801 194.355 329.274 196.316 329.274 198.603C329.274 201.304 328.633 203.659 327.352 205.67C326.09 207.661 324.227 209.208 321.763 210.312C319.299 211.397 316.332 211.939 312.863 211.939C310.852 211.939 308.861 211.791 306.89 211.495C304.938 211.199 303.233 210.835 301.774 210.401C300.316 209.967 299.271 209.553 298.64 209.159L300.03 200.407ZM364.727 166.461V174.859H347.429V184.38H360.765V192.571H347.429V202.861H366.502V211.466H336.282V166.461H364.727ZM398.022 203.068H382.321L379.956 211.466H368.157L383.829 166.165H396.662L412.452 211.466H400.506L398.022 203.068ZM395.686 195.202L391.517 181.098L390.039 175.273L388.531 181.098L384.539 195.202H395.686ZM417.124 200.407C418.366 201.116 420.091 201.777 422.299 202.388C424.526 202.979 426.724 203.275 428.893 203.275C431.061 203.275 432.638 202.979 433.624 202.388C434.61 201.777 435.102 200.801 435.102 199.46C435.102 198.534 434.817 197.736 434.245 197.065C433.673 196.395 432.826 195.754 431.702 195.143C430.578 194.512 428.666 193.556 425.965 192.275C422.713 190.737 420.14 188.865 418.248 186.657C416.355 184.449 415.409 181.67 415.409 178.318C415.409 175.657 416.07 173.4 417.39 171.547C418.731 169.694 420.604 168.304 423.009 167.378C425.433 166.451 428.252 165.988 431.465 165.988C434.462 165.988 437.054 166.264 439.242 166.816C441.43 167.348 443.066 167.93 444.151 168.56L442.406 177.017C441.44 176.268 440.001 175.608 438.089 175.036C436.196 174.445 434.314 174.149 432.441 174.149C430.371 174.149 428.814 174.484 427.769 175.154C426.744 175.825 426.232 176.751 426.232 177.934C426.232 178.821 426.488 179.61 427 180.3C427.533 180.989 428.341 181.66 429.425 182.31C430.509 182.941 432.037 183.71 434.008 184.617C436.827 185.878 439.114 187.13 440.868 188.372C442.643 189.614 444.003 191.063 444.949 192.719C445.895 194.355 446.368 196.316 446.368 198.603C446.368 201.304 445.728 203.659 444.446 205.67C443.185 207.661 441.322 209.208 438.858 210.312C436.394 211.397 433.427 211.939 429.957 211.939C427.947 211.939 425.956 211.791 423.984 211.495C422.033 211.199 420.328 210.835 418.869 210.401C417.41 209.967 416.365 209.553 415.734 209.159L417.124 200.407ZM451.011 188.727C451.149 181.098 453.14 175.45 456.984 171.784C460.828 168.117 466.061 166.185 472.685 165.988C476.904 165.87 480.541 166.737 483.596 168.59C486.671 170.423 489.007 173.085 490.604 176.574C492.201 180.063 492.96 184.173 492.881 188.904C492.782 194.168 491.826 198.514 490.013 201.944C488.199 205.374 485.695 207.898 482.502 209.514C479.309 211.13 475.553 211.939 471.236 211.939C466.978 211.939 463.311 210.992 460.236 209.1C457.161 207.188 454.835 204.487 453.258 200.998C451.681 197.509 450.932 193.418 451.011 188.727ZM481.29 188.579C481.29 184.222 480.55 180.782 479.072 178.259C477.593 175.716 475.395 174.445 472.478 174.445C469.482 174.445 467.087 175.588 465.293 177.875C463.499 180.162 462.602 183.887 462.602 189.052C462.602 191.95 462.947 194.503 463.637 196.71C464.346 198.899 465.401 200.614 466.801 201.856C468.22 203.078 469.955 203.689 472.005 203.689C475.001 203.689 477.298 202.486 478.895 200.081C480.491 197.657 481.29 193.823 481.29 188.579ZM538.802 166.461V211.466H527.477L512.899 187.367L509.617 180.536L511.007 192.009V211.466H500.805V166.461H511.332L526.679 191.151L529.813 197.716L528.601 186.273V166.461H538.802Z" fill="#293241"/>
</svg>
